<svg id="SvgjsSvg1097" width="100%" height="100%" xmlns="http://www.w3.org/2000/svg" version="1.1" xlink="http://www.w3.org/1999/xlink" xmlns:svgjs="http://svgjs.com/svgjs" preserveAspectRatio="xMidYMid meet" viewBox="-5.6718075569506254e-8 -5.6718075569506254e-8 300.0000305175781 35.215755462646484" overflow="visible"><defs id="SvgjsDefs1098"><linearGradient id="SvgjsLinearGradient9BquLQEGr" gradientUnits="userSpaceOnUse" x1="5.0000000000000275" y1="94.99999999999999" x2="95" y2="4.999999999999999"><stop id="SvgjsStop1101" stop-color="#ad66ef" offset="0.05"></stop><stop id="SvgjsStop1102" stop-color="#6e14c2" offset="0.95"></stop></linearGradient></defs><g id="SvgjsG1099" transform="scale(0.47578568075415195)" opacity="1"><g id="SvgjsG1103" class="CsisuJ-eO" transform="translate(-4.112, -4.112) scale(0.8224)" light-content="false" fill="#FA733B"><path d="M5 70.48l19.108-19.108a2.029 2.029 0 0 0 0-2.87L5.058 29.45l7.545-7.546 21.89 21.89a8.685 8.685 0 0 1 0 12.283L12.659 77.912 5 70.48zm90-41.03L75.892 48.559a2.029 2.029 0 0 0 0 2.87l19.05 19.051-7.545 7.546-21.89-21.89a8.685 8.685 0 0 1 0-12.283l21.834-21.834L95 29.45zM29.428 5l19.108 19.108a2.029 2.029 0 0 0 2.87 0l19.052-19.05 7.546 7.545-21.89 21.89a8.685 8.685 0 0 1-12.283 0L21.997 12.659 29.428 5zm41.144 90L51.463 75.892a2.029 2.029 0 0 0-2.87 0l-19.051 19.05-7.546-7.545 21.89-21.89a8.685 8.685 0 0 1 12.283 0l21.834 21.834L70.572 95z"></path></g><g id="SvgjsG1104" class="text" transform="translate(367.526009765625, 59.418000915527344) scale(1)" light-content="false" fill="#e1ebe4"><path d="M-227.37 -20.82L-233.13 -20.82L-233.13 -5.7C-235.77 -4.74 -238.57 -4.26 -241.53 -4.26C-246.09 -4.26 -249.54 -5.7 -251.88 -8.58C-254.22 -11.46 -255.39 -15.7 -255.39 -21.3C-255.39 -26.78 -254.26 -30.96 -252 -33.84C-249.74 -36.72 -246.47 -38.16 -242.19 -38.16C-237.67 -38.16 -234.09 -36.62 -231.45 -33.54L-227.55 -36.78C-229.23 -38.86 -231.27 -40.41 -233.67 -41.43C-236.07 -42.45 -238.91 -42.96 -242.19 -42.96C-248.47 -42.96 -253.26 -41.11 -256.56 -37.41C-259.86 -33.71 -261.51 -28.34 -261.51 -21.3C-261.51 -14.26 -259.86 -8.86 -256.56 -5.1C-253.26 -1.34 -248.53 0.54 -242.37 0.54C-236.41 0.54 -231.41 -0.6 -227.37 -2.88Z M-216.3 -27.18C-218.84 -24.38 -220.11 -20.48 -220.11 -15.48C-220.11 -10.48 -218.84 -6.57 -216.3 -3.75C-213.76 -0.93 -210.15 0.48 -205.47 0.48C-200.79 0.48 -197.18 -0.93 -194.64 -3.75C-192.1 -6.57 -190.83 -10.48 -190.83 -15.48C-190.83 -20.48 -192.1 -24.38 -194.64 -27.18C-197.18 -29.98 -200.79 -31.38 -205.47 -31.38C-210.15 -31.38 -213.76 -29.98 -216.3 -27.18ZM-212.04 -6.9C-213.58 -8.86 -214.35 -11.72 -214.35 -15.48C-214.35 -19.24 -213.58 -22.09 -212.04 -24.03C-210.5 -25.97 -208.31 -26.94 -205.47 -26.94C-202.63 -26.94 -200.44 -25.97 -198.9 -24.03C-197.36 -22.09 -196.59 -19.24 -196.59 -15.48C-196.59 -11.72 -197.36 -8.86 -198.9 -6.9C-200.44 -4.94 -202.63 -3.96 -205.47 -3.96C-208.31 -3.96 -210.5 -4.94 -212.04 -6.9Z M-181.47 -15.96C-184.11 -14.16 -185.43 -11.62 -185.43 -8.34C-185.43 -5.58 -184.51 -3.38 -182.67 -1.74C-180.83 -0.1 -178.37 0.72 -175.29 0.72C-171.45 0.72 -168.09 -0.72 -165.21 -3.6C-164.97 -2.6 -164.79 -1.79 -164.67 -1.17C-164.55 -0.55 -164.47 -0.16 -164.43 0L-160.05 0L-160.05 -19.74C-160.05 -23.78 -161.05 -26.73 -163.05 -28.59C-165.05 -30.45 -168.23 -31.38 -172.59 -31.38C-176.23 -31.38 -179.93 -30.46 -183.69 -28.62L-182.01 -24.72C-180.01 -25.6 -178.37 -26.19 -177.09 -26.49C-175.81 -26.79 -174.35 -26.94 -172.71 -26.94C-170.15 -26.94 -168.34 -26.4 -167.28 -25.32C-166.22 -24.24 -165.69 -22.42 -165.69 -19.86L-165.69 -18.66L-170.25 -18.66C-175.09 -18.66 -178.83 -17.76 -181.47 -15.96ZM-178.35 -4.95C-179.31 -5.77 -179.79 -6.94 -179.79 -8.46C-179.79 -10.46 -178.96 -11.96 -177.3 -12.96C-175.64 -13.96 -173.17 -14.46 -169.89 -14.46L-165.69 -14.46L-165.69 -7.86C-166.73 -6.58 -168.01 -5.57 -169.53 -4.83C-171.05 -4.09 -172.61 -3.72 -174.21 -3.72C-176.01 -3.72 -177.39 -4.13 -178.35 -4.95Z M-150.27 -45.54L-150.27 0L-144.75 0L-144.75 -45.54Z M-72.15 0L-77.55 -42.48L-84.69 -42.48L-96.39 -8.28L-108.15 -42.48L-115.29 -42.48L-120.69 0L-115.23 0L-110.79 -34.74L-99.33 0L-93.51 0L-82.05 -34.74L-77.61 0Z M-61.71 -27.21C-64.23 -24.43 -65.49 -20.52 -65.49 -15.48C-65.49 -10.44 -64.21 -6.52 -61.65 -3.72C-59.09 -0.92 -55.49 0.48 -50.85 0.48C-48.93 0.48 -47.05 0.25 -45.21 -0.21C-43.37 -0.67 -41.43 -1.42 -39.39 -2.46L-41.01 -6.3C-42.81 -5.5 -44.45 -4.91 -45.93 -4.53C-47.41 -4.15 -48.95 -3.96 -50.55 -3.96C-53.47 -3.96 -55.71 -4.88 -57.27 -6.72C-58.83 -8.56 -59.65 -11.22 -59.73 -14.7L-38.19 -14.7L-38.19 -15.66C-38.19 -20.74 -39.2 -24.63 -41.22 -27.33C-43.24 -30.03 -46.51 -31.38 -51.03 -31.38C-55.63 -31.38 -59.19 -29.99 -61.71 -27.21ZM-56.7 -24.9C-55.28 -26.26 -53.39 -26.94 -51.03 -26.94C-48.95 -26.94 -47.35 -26.29 -46.23 -24.99C-45.11 -23.69 -44.41 -21.66 -44.13 -18.9L-59.49 -18.9C-59.05 -21.54 -58.12 -23.54 -56.7 -24.9Z M-29.31 -15.96C-31.95 -14.16 -33.27 -11.62 -33.27 -8.34C-33.27 -5.58 -32.35 -3.38 -30.51 -1.74C-28.67 -0.1 -26.21 0.72 -23.13 0.72C-19.29 0.72 -15.93 -0.72 -13.05 -3.6C-12.81 -2.6 -12.63 -1.79 -12.51 -1.17C-12.39 -0.55 -12.31 -0.16 -12.27 0L-7.89 0L-7.89 -19.74C-7.89 -23.78 -8.89 -26.73 -10.89 -28.59C-12.89 -30.45 -16.07 -31.38 -20.43 -31.38C-24.07 -31.38 -27.77 -30.46 -31.53 -28.62L-29.85 -24.72C-27.85 -25.6 -26.21 -26.19 -24.93 -26.49C-23.65 -26.79 -22.19 -26.94 -20.55 -26.94C-17.99 -26.94 -16.18 -26.4 -15.12 -25.32C-14.06 -24.24 -13.53 -22.42 -13.53 -19.86L-13.53 -18.66L-18.09 -18.66C-22.93 -18.66 -26.67 -17.76 -29.31 -15.96ZM-26.19 -4.95C-27.15 -5.77 -27.63 -6.94 -27.63 -8.46C-27.63 -10.46 -26.8 -11.96 -25.14 -12.96C-23.48 -13.96 -21.01 -14.46 -17.73 -14.46L-13.53 -14.46L-13.53 -7.86C-14.57 -6.58 -15.85 -5.57 -17.37 -4.83C-18.89 -4.09 -20.45 -3.72 -22.05 -3.72C-23.85 -3.72 -25.23 -4.13 -26.19 -4.95Z M6.12 -4.68C4.82 -5.04 3.27 -5.6 1.47 -6.36L-0.27 -1.8C1.41 -1.08 3.09 -0.51 4.77 -0.09C6.45 0.33 8.27 0.54 10.23 0.54C13.59 0.54 16.32 -0.27 18.42 -1.89C20.52 -3.51 21.57 -5.8 21.57 -8.76C21.57 -10.64 21.21 -12.15 20.49 -13.29C19.77 -14.43 18.9 -15.28 17.88 -15.84C16.86 -16.4 15.51 -16.96 13.83 -17.52L12.39 -18.06C12.03 -18.22 11.63 -18.36 11.19 -18.48C9.51 -19.08 8.29 -19.65 7.53 -20.19C6.77 -20.73 6.39 -21.56 6.39 -22.68C6.39 -23.88 6.87 -24.85 7.83 -25.59C8.79 -26.33 10.21 -26.7 12.09 -26.7C13.33 -26.7 14.52 -26.54 15.66 -26.22C16.8 -25.9 18.03 -25.48 19.35 -24.96L20.85 -29.4C19.33 -30 17.88 -30.48 16.5 -30.84C15.12 -31.2 13.65 -31.38 12.09 -31.38C8.37 -31.38 5.55 -30.54 3.63 -28.86C1.71 -27.18 0.75 -25.1 0.75 -22.62C0.75 -20.62 1.24 -18.94 2.22 -17.58C3.2 -16.22 4.61 -15.22 6.45 -14.58C8.29 -13.94 9.35 -13.58 9.63 -13.5C11.43 -12.9 12.66 -12.46 13.32 -12.18C13.98 -11.9 14.58 -11.47 15.12 -10.89C15.66 -10.31 15.93 -9.56 15.93 -8.64C15.93 -7.16 15.42 -6.04 14.4 -5.28C13.38 -4.52 11.97 -4.14 10.17 -4.14C8.77 -4.14 7.42 -4.32 6.12 -4.68Z M55.59 -30.84L49.95 -30.84L49.95 -8.76C48.95 -7.24 47.67 -6.05 46.11 -5.19C44.55 -4.33 42.83 -3.9 40.95 -3.9C38.87 -3.9 37.36 -4.45 36.42 -5.55C35.48 -6.65 35.01 -8.42 35.01 -10.86L35.01 -30.84L29.37 -30.84L29.37 -10.44C29.37 -6.84 30.25 -4.11 32.01 -2.25C33.77 -0.39 36.39 0.54 39.87 0.54C44.15 0.54 47.63 -1.06 50.31 -4.26L50.97 0L55.59 0Z M70.17 -30.84L65.61 -30.84L65.61 0L71.25 0L71.25 -22.02C72.13 -23.58 73.12 -24.69 74.22 -25.35C75.32 -26.01 76.71 -26.34 78.39 -26.34C79.35 -26.34 80.69 -26.14 82.41 -25.74L83.31 -30.78C81.79 -31.18 80.47 -31.38 79.35 -31.38C75.83 -31.38 72.99 -29.78 70.83 -26.58Z M90.75 -27.21C88.23 -24.43 86.97 -20.52 86.97 -15.48C86.97 -10.44 88.25 -6.52 90.81 -3.72C93.37 -0.92 96.97 0.48 101.61 0.48C103.53 0.48 105.41 0.25 107.25 -0.21C109.09 -0.67 111.03 -1.42 113.07 -2.46L111.45 -6.3C109.65 -5.5 108.01 -4.91 106.53 -4.53C105.05 -4.15 103.51 -3.96 101.91 -3.96C98.99 -3.96 96.75 -4.88 95.19 -6.72C93.63 -8.56 92.81 -11.22 92.73 -14.7L114.27 -14.7L114.27 -15.66C114.27 -20.74 113.26 -24.63 111.24 -27.33C109.22 -30.03 105.95 -31.38 101.43 -31.38C96.83 -31.38 93.27 -29.99 90.75 -27.21ZM95.76 -24.9C97.18 -26.26 99.07 -26.94 101.43 -26.94C103.51 -26.94 105.11 -26.29 106.23 -24.99C107.35 -23.69 108.05 -21.66 108.33 -18.9L92.97 -18.9C93.41 -21.54 94.34 -23.54 95.76 -24.9Z M164.97 -28.59C163.21 -30.45 160.59 -31.38 157.11 -31.38C152.71 -31.38 149.15 -29.58 146.43 -25.98C144.91 -29.58 141.73 -31.38 136.89 -31.38C132.77 -31.38 129.37 -29.8 126.69 -26.64L126.09 -30.84L121.47 -30.84L121.47 0L127.11 0L127.11 -22.14C128.07 -23.62 129.31 -24.79 130.83 -25.65C132.35 -26.51 134.01 -26.94 135.81 -26.94C137.89 -26.94 139.4 -26.39 140.34 -25.29C141.28 -24.19 141.75 -22.42 141.75 -19.98L141.75 0L147.39 0L147.39 -20.4C147.39 -21.16 147.37 -21.72 147.33 -22.08C148.25 -23.6 149.48 -24.79 151.02 -25.65C152.56 -26.51 154.23 -26.94 156.03 -26.94C158.11 -26.94 159.62 -26.39 160.56 -25.29C161.5 -24.19 161.97 -22.42 161.97 -19.98L161.97 0L167.61 0L167.61 -20.4C167.61 -24 166.73 -26.73 164.97 -28.59Z M178.77 -27.21C176.25 -24.43 174.99 -20.52 174.99 -15.48C174.99 -10.44 176.27 -6.52 178.83 -3.72C181.39 -0.92 184.99 0.48 189.63 0.48C191.55 0.48 193.43 0.25 195.27 -0.21C197.11 -0.67 199.05 -1.42 201.09 -2.46L199.47 -6.3C197.67 -5.5 196.03 -4.91 194.55 -4.53C193.07 -4.15 191.53 -3.96 189.93 -3.96C187.01 -3.96 184.77 -4.88 183.21 -6.72C181.65 -8.56 180.83 -11.22 180.75 -14.7L202.29 -14.7L202.29 -15.66C202.29 -20.74 201.28 -24.63 199.26 -27.33C197.24 -30.03 193.97 -31.38 189.45 -31.38C184.85 -31.38 181.29 -29.99 178.77 -27.21ZM183.78 -24.9C185.2 -26.26 187.09 -26.94 189.45 -26.94C191.53 -26.94 193.13 -26.29 194.25 -24.99C195.37 -23.69 196.07 -21.66 196.35 -18.9L180.99 -18.9C181.43 -21.54 182.36 -23.54 183.78 -24.9Z M233.1 -28.56C231.36 -30.44 228.85 -31.38 225.57 -31.38C221.13 -31.38 217.53 -29.76 214.77 -26.52L214.11 -30.84L209.49 -30.84L209.49 0L215.13 0L215.13 -22.08C216.13 -23.6 217.41 -24.79 218.97 -25.65C220.53 -26.51 222.25 -26.94 224.13 -26.94C226.21 -26.94 227.72 -26.39 228.66 -25.29C229.6 -24.19 230.07 -22.42 230.07 -19.98L230.07 0L235.71 0L235.71 -20.4C235.71 -23.96 234.84 -26.68 233.1 -28.56Z M242.07 -26.52L247.47 -26.52L247.47 -9.18C247.47 -6.02 248.32 -3.64 250.02 -2.04C251.72 -0.44 253.91 0.36 256.59 0.36C258.67 0.36 260.81 -0.1 263.01 -1.02L262.05 -4.98C260.29 -4.42 258.81 -4.14 257.61 -4.14C254.61 -4.14 253.11 -5.92 253.11 -9.48L253.11 -26.52L262.53 -26.52L262.53 -30.84L253.11 -30.84L253.11 -39.84L248.91 -39.84L247.95 -30.84L242.07 -30.84Z"></path></g></g></svg>