<svg id="SvgjsSvg1097" width="100%" height="100%" xmlns="http://www.w3.org/2000/svg" version="1.1" xlink="http://www.w3.org/1999/xlink" xmlns:svgjs="http://svgjs.com/svgjs" preserveAspectRatio="xMidYMid meet" viewBox="-5.6718075569506254e-8 -5.6718075569506254e-8 300.0000305175781 35.215755462646484" overflow="visible">
<defs id="SvgjsDefs1098">
<linearGradient id="SvgjsLinearGradient9BquLQEGr" gradientUnits="userSpaceOnUse" x1="5.0000000000000275" y1="94.99999999999999" x2="95" y2="4.999999999999999">
<stop id="SvgjsStop1101" stop-color="#ad66ef" offset="0.05">
</stop>
<stop id="SvgjsStop1102" stop-color="#6e14c2" offset="0.95"></stop>
</linearGradient>
</defs>
<g id="SvgjsG1099" transform="scale(0.47578568075415195)" opacity="1">
  <g id="SvgjsG1103" class="CsisuJ-eO" transform="translate(-4.112, -4.112) scale(0.8224)" light-content="false" fill="#FA733B">
  <path d="M5 70.48l19.108-19.108a2.029 2.029 0 0 0 0-2.87L5.058 29.45l7.545-7.546 21.89 21.89a8.685 8.685 0 0 1 0 12.283L12.659 77.912 5 70.48zm90-41.03L75.892 48.559a2.029 2.029 0 0 0 0 2.87l19.05 19.051-7.545 7.546-21.89-21.89a8.685 8.685 0 0 1 0-12.283l21.834-21.834L95 29.45zM29.428 5l19.108 19.108a2.029 2.029 0 0 0 2.87 0l19.052-19.05 7.546 7.545-21.89 21.89a8.685 8.685 0 0 1-12.283 0L21.997 12.659 29.428 5zm41.144 90L51.463 75.892a2.029 2.029 0 0 0-2.87 0l-19.051 19.05-7.546-7.545 21.89-21.89a8.685 8.685 0 0 1 12.283 0l21.834 21.834L70.572 95z"></path>
  </g>
  <g id="SvgjsG1104" class="text" transform="translate(367.526009765625, 59.418000915527344) scale(1)" light-content="false" fill="#3b3b3b">
  </g>
</g></svg>